<svg width="969" height="955" viewBox="0 0 969 955" fill="none" xmlns="http://www.w3.org/2000/svg">
<ellipse cx="484.5" cy="477.5" rx="484.5" ry="477.5" fill="white"/>
<circle cx="227" cy="364" r="104" stroke="black" stroke-width="20"/>
<circle cx="741" cy="364" r="104" stroke="black" stroke-width="20"/>
<circle cx="652" cy="577" r="25" fill="black"/>
<circle cx="316" cy="577" r="25" fill="black"/>
<path d="M548 676C548 701.405 517.466 730 483.5 730C449.534 730 419 701.405 419 676C419 650.595 449.534 638 483.5 638C517.466 638 548 650.595 548 676Z" fill="black"/>
<rect x="345.806" y="466" width="273.448" height="41" fill="#FF1E1E"/>
<path fill-rule="evenodd" clip-rule="evenodd" d="M692.304 338.562C747.814 383.102 779 453.511 779 516.5H588.244V479C588.244 457.461 570.784 440 549.244 440H415.816C394.277 440 376.816 457.461 376.816 479V516.5L187 516.5C187 453.511 218.186 383.102 273.696 338.562C329.207 294.022 404.496 269 483 269C561.504 269 636.793 294.022 692.304 338.562Z" fill="black"/>
<circle cx="227" cy="364" r="104" stroke="black" stroke-width="20"/>
<circle cx="741" cy="364" r="104" stroke="black" stroke-width="20"/>
<circle cx="652" cy="577" r="25" fill="black"/>
<circle cx="316" cy="577" r="25" fill="black"/>
<path d="M548 676C548 701.405 517.466 730 483.5 730C449.534 730 419 701.405 419 676C419 650.595 449.534 638 483.5 638C517.466 638 548 650.595 548 676Z" fill="black"/>
<rect x="345.806" y="466" width="273.448" height="41" fill="#FF1E1E"/>
<path fill-rule="evenodd" clip-rule="evenodd" d="M692.304 338.562C747.814 383.102 779 453.511 779 516.5H588.244V479C588.244 457.461 570.784 440 549.244 440H415.816C394.277 440 376.816 457.461 376.816 479V516.5L187 516.5C187 453.511 218.186 383.102 273.696 338.562C329.207 294.022 404.496 269 483 269C561.504 269 636.793 294.022 692.304 338.562Z" fill="black"/>
</svg>
